<?xml version="1.0" encoding="utf-8"?>
<!-- Generator: Adobe Illustrator 16.0.0, SVG Export Plug-In . SVG Version: 6.00 Build 0)  -->
<!DOCTYPE svg PUBLIC "-//W3C//DTD SVG 1.1//EN" "http://www.w3.org/Graphics/SVG/1.1/DTD/svg11.dtd">
<svg version="1.1" id="Layer_2" xmlns="http://www.w3.org/2000/svg" xmlns:xlink="http://www.w3.org/1999/xlink" x="0px" y="0px"
	 width="2605.96px" height="1556.5px" viewBox="0 0 2605.96 1556.5" enable-background="new 0 0 2605.96 1556.5"
	 xml:space="preserve">
<g>
	<rect x="0.12" y="1" fill="#EEEEEE" width="2606" height="1556"/>
	<g>
		<ellipse fill="#E2E2E2" cx="1023.697" cy="1375.946" rx="474.423" ry="23.145"/>
		<ellipse fill="#E2E2E2" cx="1972.399" cy="1372.701" rx="339.927" ry="15.16"/>
	</g>
	<g>
		<defs>
			<rect id="SVGID_1_" x="1690.12" y="682" width="916" height="547"/>
		</defs>
		<clipPath id="SVGID_2_">
			<use xlink:href="#SVGID_1_"  overflow="visible"/>
		</clipPath>
		<g clip-path="url(#SVGID_2_)">
			<path fill="#E2E2E2" d="M1780.12,1186v-101h91v-74h75v74h122V948h178v137h128V960h57v143h118V973h25.26h30.74v95h137V960h49.595
				h48.405v88h152v-88h117v61h98v-57h68v103.572c0,0-13.139,60.726-47.912,91.64C3192.433,1190.126,3056.11,1186,3056.11,1186
				H1780.12z"/>
			<path fill="#FCFCFC" d="M3037.12,1135c0,12,0,22,0,34c-7,0-14.035,0-21.07,0c-0.074-3-0.213-3.054-0.224-4.49
				c-0.196-27.185-0.316-54.513-0.661-81.696c-0.029-2.382-1.038-5.132-2.393-7.132c-4.059-5.984-8.516-11.733-13.213-18.091
				c-5.024,7.371-9.787,14.174-14.312,21.148c-0.722,1.112-0.311,2.905-0.311,4.39c-0.026,26.775,0.183,53.542,0.183,80.316
				c0,1.606,0,2.555,0,5.555c-9,0-17.193,0-25.793,0c0-11-0.143-20.051,0.162-29.75c0.043-1.371,2.266-2.828,3.549-4.24
				c-2.739-2.072-6.879-3.82-8.256-6.779c-1.134-2.436-2.501-7.338,3.094-10.077c-7.738-1.397-9.661-6.508-9.863-13.166
				c-0.777,6.248-1.715,12.081-9.658,13.394c5.504,2.36,5.842,7.256,3.947,10.322c-1.81,2.927-6.437,4.109-10.371,6.376
				c4.713,1.495,4.48,4.35,4.405,7.971c-0.161,7.781-0.05,16.95-0.05,22.95c-3.846,0-7.166,0-10.166,0c0-1,0-2.319,0-3.944
				c0-46.411-0.423-92.821-0.314-139.231c0.008-3.308-0.992-5.31-4.166-6.597c-3.42-1.389-6.953-2.964-9.994-5.026
				c-6.814-4.62-13.814-5.004-21.832-3.361c-24.465,5.011-49.088,9.374-73.68,13.732c-3.607,0.638-4.662,2.095-4.648,5.359
				c0.111,31.444-0.365,62.888-0.365,94.33c0,1.62,0,2.738,0,5.738c-6,0-14,0-22,0c0-1,0-3.54,0-4.996
				c0-25.813,0.365-51.627,0.236-77.44c-0.014-3.101,0.777-5.317,3.709-6.61c2.293-1.01,3.093-2.784,2.969-5.288
				c-0.199-3.973-0.244-7.979,0.059-11.938c0.236-3.091-1.075-4.26-3.774-5.225c-16.929-6.045-33.808-12.201-50.63-18.529
				c-1.096-0.413-2.136-2.557-2.18-3.928c-0.484-15.229-0.775-30.466-1.091-45.702c-0.063-3.017-0.009-6.034-0.659-9.061
				c-0.424,14.344-0.945,28.686-1.201,43.033c-0.057,3.228-0.705,5.606-3.906,6.8c-2.48,0.926-2.822,2.856-2.834,5.272
				c-0.025,6.61,1.337,5.569-5.95,7.179c-11.389,2.515-22.768,5.081-34.195,7.412c-2.859,0.584-3.782,1.734-3.688,4.637
				c0.216,6.721,0.227,13.459,0,20.18c-0.108,3.229,0.758,5.316,3.65,7.037c1.406,0.836,2.779,3.097,2.789,4.721
				c0.166,27.6,0.121,55.498,0.107,83.097c0,0.935-0.156,1.351-0.264,3.351c-2.398,0-4.146,0-7.146,0c0-30,0-58.703,0-88.258
				c-15,2.213-29,4.338-44,6.533c0,1.793,0,3.404,0,5.017c0,21.558,0.024,43.114,0.035,64.671c0,1.939,0.217,3.589-2.449,4.361
				c-7.324,2.117-7.27,2.318-7.43,9.904c-0.016,0.81-0.119,1.771-0.211,2.771c-2.881,0-4.945,0-8.945,0c0-3,0-3.748,0-5.492
				l-96,0.141c0,1.633,0,2.352,0,5.352c-2,0-1.899,0-2.24,0c-0.119-17-0.247-35.532-0.471-53.266
				c-0.031-2.382-1.039-5.093-2.395-7.091c-2.27-3.35-4.67-6.632-7.164-9.972c0.013-12.361,0.033-24.729,0.084-37.091
				c0.015-3.553-1.027-5.035-4.355-6.542c-10.587-4.789-21.141-4.756-32.426-2.855c-14.447,2.434-28.969,4.42-43.496,6.377
				c0.002-0.91,0.002-1.824,0.004-2.734c0.008-3.309-0.799-5.312-3.973-6.599c-3.422-1.387-6.854-2.964-9.896-5.026
				c-6.815-4.62-13.694-5.004-21.711-3.361c-6.668,1.365-13.375,2.68-19.961,3.964c0-24.888,0-49.797,0-74.781
				c-14.488,0.518-27.518-1.837-40.426,3.76c-4.25,1.843-10.598,1.74-12.768,4.798c-2.302,3.243-0.955,9.185-0.957,13.947
				c-0.01,20.71-0.021,41.418-0.023,62.128c-3.232,0.678-3.857,2.145-3.848,5.276c0.113,31.444,0.021,62.888,0.021,94.33
				c0,1.62,0,2.738,0,5.738c-8,0-14,0-22,0c0-1,0-3.54,0-4.996c0-25.813-0.015-51.627-0.141-77.44
				c-0.016-3.101,0.587-5.317,3.518-6.61c2.294-1.01,3-2.784,2.873-5.288c-0.197-3.973-0.29-7.979,0.014-11.938
				c0.236-3.091-1.099-4.26-3.8-5.225c-16.929-6.045-33.817-12.201-50.64-18.529c-1.096-0.413-2.143-2.557-2.187-3.928
				c-0.485-15.229-0.778-30.466-1.095-45.702c-0.061-3.017-0.008-6.034-0.659-9.061c-0.424,14.344-0.946,28.686-1.202,43.033
				c-0.057,3.228-0.705,5.606-3.906,6.8c-2.481,0.926-2.824,2.856-2.834,5.272c-0.025,6.61,1.336,5.569-5.95,7.179
				c-11.39,2.515-22.769,5.081-34.196,7.412c-2.859,0.584-3.782,1.734-3.688,4.637c0.215,6.721,0.226,13.459,0,20.18
				c-0.109,3.229,0.758,5.316,3.65,7.037c1.406,0.836,2.777,3.097,2.787,4.721c0.168,27.6,0.123,55.498,0.109,83.097
				c0,0.935-0.157,1.351-0.264,3.351c-2.4,0-5.391,0-6.391,0c0-30,0-58.703,0-88.258c-16,2.213-29,4.338-45,6.533
				c0,1.793,0,3.404,0,5.017c0,21.558,0.146,43.114,0.157,64.671c0,1.939,0.28,3.589-2.388,4.361
				c-7.324,2.117-7.239,2.318-7.4,9.904c-0.018,0.81-0.089,1.771-0.18,2.771c-2.883,0-6.189,0-9.189,0c0-3,0-3.748,0-5.492
				c0-81.423,0.09-162.847,0.205-244.271c0.004-3.627-0.983-4.762-4.413-5.959c-6.57-2.289-12.877-6.277-19.327-7.277
				c-0.55,0-1.1,0-1.648,0c-5.848,1-11.625,3.57-17.568,5.105c-3.381,0.873-4.402,2.185-4.086,5.461
				c0.275,2.847,0.057,5.609,0.057,8.037c-0.328,0.556-0.393,0.705-0.465,0.707c-8.109,0.278-5.673,6.351-6.216,10.921
				c-0.075,0.649-1.793,1.361-2.699,1.628c-1.682,0.494-2.839,0.659-5.839,1.027c0,3.206,0,6.183,0,8.906
				c-1,0.41-0.454,0.65-0.69,0.699c-6.766,1.407-6.466,1.415-7.017,8.182c-0.109,1.343-1.386,3.262-2.605,3.701
				c-2.98,1.073-4.176,2.752-3.629,5.81c0.561,3.143-0.874,4.412-3.909,4.77c-2.842,0.334-5.616,1.141-8.847,1.829
				c0,3.477-0.158,6.892,0.059,10.282c0.164,2.522-0.742,3.946-3.172,4.281c-4.445,0.612-5.287,3.188-5.276,7.404
				c0.151,56.299,0.087,112.598,0.087,168.897c0,1.633,0,2.352,0,5.352c-4,0-7,0-12,0c0-3,0-3.267,0-4.853
				c0-34.191,0.43-68.384,0.572-102.575c0.014-3.552-0.787-5.031-4.114-6.537c-10.584-4.791-21.019-4.755-32.304-2.854
				c-22.053,3.715-43.934,6.388-66.088,9.513c-1.066,0.15-2.066,0.489-3.066,0.801c0,8.885,0,17.646,0,26.81
				c-7,1.536-13.737,3.245-20.438,4.429c-3.469,0.612-3.974,2.11-3.952,5.456c0.152,21.971,0.391,43.942,0.391,65.912
				c0,1.618,0,3.898,0,4.898c-3,0-4,0-5,0c0-67,0-133.002,0-199.978c-15,0.518-27.896-1.837-40.805,3.76
				c-4.249,1.843-10.786,1.74-12.956,4.798c-2.301,3.243-0.575,9.185-0.577,13.947c-0.031,63.714,0.338,127.429,0.338,191.144
				c0,1.752,0,2.329,0,5.329c-11,0-41,0-52,0c0,21,0,41,0,62c-5,0,13,0,8,0c0,1,0,2.527,0,5c2,0,3.961,0,5.691,0
				c162.213,0,324.428,0,486.641,0c1.705,0,3.41,0,5.115,0c96.846,0,193.688,0,290.532,0c0.548,0,1.096-0.013,1.644,0
				c0-0.013,0,0,0,0c163.371,0,326.742,0,490.111,0c0.549,0,1.266-0.013,2.266,0c0-29.39,0-59,0-88
				C3059.12,1135,3048.12,1135,3037.12,1135z"/>
			<g>
				<rect x="2055.12" y="962" fill="#CCCCCC" width="13" height="19"/>
				<rect x="2084.12" y="1006" fill="#CCCCCC" width="17" height="19"/>
				<rect x="2055.12" y="1060" fill="#CCCCCC" width="15" height="15"/>
				<rect x="2348.12" y="1048" fill="#CCCCCC" width="16" height="16"/>
				<rect x="2404.12" y="1048" fill="#CCCCCC" width="15" height="14"/>
				<rect x="2385.12" y="1091" fill="#CCCCCC" width="10" height="11"/>
				<rect x="2456.12" y="1048" fill="#CCCCCC" width="16" height="16"/>
				<rect x="2450.12" y="1091" fill="#CCCCCC" width="19" height="19"/>
				<rect x="2832.12" y="1035" fill="#CCCCCC" width="15" height="14"/>
				<rect x="2867.12" y="1035" fill="#CCCCCC" width="19" height="19"/>
				<rect x="2847.12" y="1075" fill="#CCCCCC" width="26" height="27"/>
				<rect x="2896.12" y="1101" fill="#CCCCCC" width="10" height="10"/>
				<rect x="2992.12" y="1054" fill="#CCCCCC" width="14" height="15"/>
				<rect x="3022.12" y="1043" fill="#CCCCCC" width="9" height="9"/>
				<rect x="3022.12" y="1075" fill="#CCCCCC" width="21" height="22"/>
				<rect x="3121.12" y="931" fill="#CCCCCC" width="17" height="17"/>
				<rect x="3121.12" y="971" fill="#CCCCCC" width="18" height="19"/>
				<rect x="3129.12" y="1019" fill="#CCCCCC" width="24" height="24"/>
				<rect x="3129.12" y="1069" fill="#CCCCCC" width="20" height="20"/>
				<rect x="3129.12" y="1111" fill="#CCCCCC" width="16" height="16"/>
				<rect x="1939.12" y="1048" fill="#CCCCCC" width="16" height="16"/>
				<rect x="1946.12" y="1085" fill="#CCCCCC" width="16" height="16"/>
				<rect x="1979.12" y="1048" fill="#CCCCCC" width="12" height="12"/>
				<rect x="1984.12" y="1093" fill="#CCCCCC" width="13" height="13"/>
				<rect x="1955.12" y="1118" fill="#CCCCCC" width="15" height="14"/>
				<rect x="2230.12" y="1031" fill="#CCCCCC" width="16" height="15"/>
				<rect x="2230.12" y="1068" fill="#CCCCCC" width="18" height="17"/>
				<rect x="2230.12" y="1106" fill="#CCCCCC" width="14" height="13"/>
			</g>
		</g>
	</g>
	<line fill="none" stroke="#CCCCCC" stroke-width="4" stroke-miterlimit="10" x1="244.12" y1="1225" x2="2439.12" y2="1225"/>
	<g>
		<g>
			<path fill="#E2E2E2" d="M1690.714,1247.996l573.952-1.996c26.026-0.044,39.052-11.323,45.397-20.789
				c6.519-9.722,7.258-19.502,7.342-21.671c0.249-4.834,8.012-157.235,8.012-264.962c0-41.962,12.277-74.357,36.49-96.286
				c44.013-39.862,114.049-33.425,114.754-33.354l0.616,0.061l0.637,0.002h135.206v-25h-134.622
				c-8.474-0.751-82.827-5.882-133.234,39.636c-29.759,26.872-44.847,65.545-44.847,114.942c0,108.271-7.903,262.233-7.983,263.775
				l-0.019,0.354c-0.066,0.775-0.573,5.192-3.613,9.285c-4.438,5.978-12.61,9.008-24.289,9.008l-0.297,0.004l-574.096,2
				L1690.714,1247.996z"/>
		</g>
		<g>
			<path fill="#B7B7B7" d="M2167.353,1372h-404.766l-0.533-0.031c-2.593-0.154-26.028-1.913-50.075-16.089
				c-23.201-13.678-50.858-41.425-50.858-95.936V1166h36v93.944c0,29.648,10.81,51.287,32.129,64.315
				c15.575,9.519,31.812,11.467,34.61,11.74h403.493c30.207,0,50.749-6.959,61.053-20.685c13.333-17.759,6.503-43.042,6.43-43.292
				l-0.715-2.461v-117.396c0-24.386,8.68-44.835,25.102-59.139c33.521-29.196,89.367-24.152,99.014-23.027h247.885v36h-250.241
				l-1.229-0.17c-13.327-1.794-52.285-2.71-71.843,14.395c-8.537,7.467-12.688,17.915-12.688,31.941v112.646
				c2.285,10.04,7.956,44.306-12.925,72.118C2239.724,1360.201,2209.497,1372,2167.353,1372z"/>
		</g>
		<g>
			<path fill="#AAAAAA" d="M2246.405,1315.315c13.333-17.759,6.503-43.042,6.43-43.292l-0.715-2.461v-117.396
				c0-24.386,8.68-44.835,25.102-59.139c20.367-17.741,48.979-22.838,70.46-23.855c-20.225-0.955-61.54,0.408-88.46,23.855
				c-16.422,14.304-25.102,34.753-25.102,59.139v117.396l0.715,2.461c0.073,0.25,6.903,25.533-6.43,43.292
				c-10.304,13.726-30.846,20.685-61.053,20.685h18C2215.56,1336,2236.102,1329.041,2246.405,1315.315z"/>
			<path fill="#AAAAAA" d="M1729.979,1355.88c-23.201-13.678-50.858-41.425-50.858-95.936V1166h-18v93.944
				c0,54.511,27.657,82.258,50.858,95.936c24.047,14.176,47.482,15.935,50.075,16.089l0.533,0.031h18l-0.533-0.031
				C1777.461,1371.814,1754.025,1370.056,1729.979,1355.88z"/>
		</g>
		<path fill="#FF5000" d="M1707.12,1164.524c0,5.785-4.69,10.476-10.477,10.476h-34.047c-5.786,0-10.477-4.69-10.477-10.476v-7.049
			c0-5.785,4.69-10.476,10.477-10.476h34.047c5.786,0,10.477,4.69,10.477,10.476V1164.524z"/>
	</g>
	<g>
		<path fill="#D6AE05" d="M1826.019,1415.188l0.723,4.899l1.047,7.087c36.834,16.215,86.426-1.54,86.426-1.54l3.48,7.193
			l31.598-2.968l-0.958-22.303l-1.972-54.699c-0.563-13.197-51.045-11.34-51.045-11.34
			C1884.997,1399.76,1826.019,1415.188,1826.019,1415.188z"/>
		<path fill="#FF5000" d="M1826.741,1420.087l1.047,7.087c36.834,16.215,86.426-1.54,86.426-1.54l3.48,7.193l31.598-2.968
			l-0.958-22.303C1929.22,1414.708,1876.452,1431.44,1826.741,1420.087z"/>
		<g>
			<path fill="#B98E8C" d="M1907.173,659.14c0,0-66.25,47.036-99.188,42.87s-148.239-70.607-167.966-79.975
				c-19.729-9.368-28.912-16.973-39.953-19.534c-11.039-2.561-36.473-28.632-44.414-41.604c-7.938-12.973-1.076-27.806-1.076-27.806
				s7.98,9.848,14.574,13.881c6.592,4.033,18.183,4.218,18.183,4.218s-3.938-6.623-8.184-8.976
				c-4.243-2.354-7.989-3.908-7.688-5.207c0.302-1.298,13.342,0.016,18.235,2.521c4.894,2.503,22.564,19.264,30.526,26.244
				c7.961,6.979,20.922,13.066,24.493,13.895c3.571,0.829,140.896,31.337,162.263,39.536c0,0,31.088-21.712,49.086-27.119
				C1874.063,586.679,1907.173,659.14,1907.173,659.14z"/>
			<path fill="#231C69" d="M1863.835,574.724c0,0,43.469-39.874,77.674-63.419c34.207-23.546,57.016-5.127,62.415,2.161
				c10.14,13.683,40.143,44.9-6.489,85.41l-105.049,70.052c0,0-45.854,37.353-84.401,33.082
				c-38.55-4.27-150.209-65.762-156.401-68.567c-6.191-2.805-23.729-6.873-17.966-19.908c5.763-13.035,7.679-30.157,19.075-32.075
				s50.061,11.385,58.498,13.351c8.436,1.966,86.812,19.484,94.937,19.496C1814.251,614.318,1863.835,574.724,1863.835,574.724z"/>
		</g>
		<path fill="#231C69" d="M1950.794,767.477c0,0-53.775,280.51-66.073,352.769c-12.3,72.259-5.595,190.052-4.075,215.66
			c0,0,4.059,17.585,10.436,18.192c14.377,1.371,40.537,2.857,58.529-1.984c3.709-0.998,7.073-19.266,9.913-20.859
			c0,0,14.276-142.778,30.597-201.254s19.234-135.701,37.83-169.39c18.596-33.688,55.094-72.571,36.359-134.507L1950.794,767.477z"
			/>
		<path fill="#D6AE05" d="M2139.524,1425.159l3.201,3.778l4.633,5.465c39.84-5.688,72.571-46.959,72.571-46.959l6.755,4.27
			l25.262-19.21l-12.594-18.432l-30.566-45.405c-7.449-10.907-49.333,17.334-49.333,17.334
			C2181.453,1380.906,2139.524,1425.159,2139.524,1425.159z"/>
		<path fill="#4981FC" d="M1944.157,786c0,0,73.283,283.791,93.561,354.229s81.518,153.656,94,176.067
			c0,0,13.761,16.549,18.318,14.905c13.367-4.819,41.517-16.042,56.15-29.741c2.156-2.018,1.934-12.794,1.934-18.794
			c0,0-57.032-120.901-67.704-180.666c-10.673-59.765-45.067-129.31-42.933-167.73c2.135-38.42,41.393-100.27-2.363-148.27H1944.157
			z"/>
		<path fill="#4981FC" d="M2073.276,490.5c-14-4-89-5-126,14c0,0-15,14-17,71s12,172,19,192c0,0,129.844,77.78,160.844,63.78
			c0,0-9.252-84.102-1.333-123.613c8.544-42.633,47.575-144.398,24.351-178.501C2109.276,494.127,2073.276,490.5,2073.276,490.5z"/>
		<path fill="#231C69" d="M2111.27,537.652l16.377,1.776c0,0,1.767,48.131-5.945,77.121s-43.936,111.481-54.94,130.269
			c-21.975,37.515-84.693,40.052-84.693,40.052L2111.27,537.652z"/>
		<path fill="#FF5000" d="M2142.726,1428.938l4.633,5.465c39.84-5.688,72.571-46.959,72.571-46.959l6.755,4.27l25.262-19.21
			l-12.594-18.432C2226.899,1370.24,2190.933,1412.32,2142.726,1428.938z"/>
		<g>
			<path fill="#FFCE00" d="M1737.891,900.171l-34.627-9.846l78.136-274.803l0.241-0.653c2.027-5.615,6.679-24.313,1.341-35.372
				c-1.914-3.964-4.963-6.514-9.859-8.231l-56.688-16.118l9.846-34.627l57.562,16.366l0.406,0.137
				c14.291,4.81,25.095,14.149,31.243,27.009c12.169,25.454,2.329,56.486,0.179,62.591L1737.891,900.171z"/>
		</g>
		<g>
			<polygon fill="#AAAAAA" points="1740.279,524.521 1784.214,537.012 1783.841,536.887 1726.279,520.521 1716.434,555.148 
				1730.438,559.13 			"/>
			<path fill="#D6AE05" d="M1795.399,619.522l0.241-0.653c2.027-5.615,6.679-24.313,1.341-35.372
				c-1.914-3.964-4.963-6.514-9.859-8.231l-13.816-3.929c4.784,1.717,7.787,4.248,9.676,8.16
				c5.338,11.058,0.687,29.757-1.341,35.372l-0.241,0.653l-78.136,274.803l14.005,3.982L1795.399,619.522z"/>
		</g>
		<g>
			<path fill="#B98E8C" d="M2089.497,673.769c0,0-25.151,77.259-54.081,93.551c-28.93,16.291-161.11,31.679-182.534,35.918
				c-21.422,4.238-33.331,3.607-43.723,8.133c-10.391,4.524-46.352-1.245-60.46-6.928s-17.441-21.683-17.441-21.683
				s12.278,3.149,19.977,2.457s17.114-7.452,17.114-7.452s-7.111-2.97-11.922-2.329c-4.811,0.64-8.744,1.625-9.276,0.403
				s10.722-7.94,16.144-8.847c5.422-0.907,29.6,2.015,40.153,2.873c10.554,0.857,24.587-1.981,27.948-3.445
				s131.805-58.831,153.848-64.986c0,0,12.016-35.966,23.244-51.036C2019.718,635.329,2089.497,673.769,2089.497,673.769z"/>
			<path fill="#4981FC" d="M2004.378,631.828c0,0,11.131-57.928,24.559-97.223c13.428-39.296,42.721-38.104,51.4-35.472
				c16.297,4.942,58.996,12.12,45.705,72.442l-42.582,118.868c0,0-14.548,57.324-48.044,76.876
				c-33.496,19.551-159.804,36.743-166.448,38.183c-6.643,1.439-23.148,8.626-26.292-5.274s-11.813-28.789-3.807-37.123
				c8.007-8.335,46.981-20.703,54.927-24.153s81.315-36.108,87.846-40.941C1988.172,693.176,2004.378,631.828,2004.378,631.828z"/>
		</g>
		<path fill="#CB9B97" d="M2044.946,491.83c14-16.66,14.66-32,19.33-35.33s29.33-0.67,23.33-18s16.67-48.67-13.33-63.33
			c-30-14.67-61.188-28.937-73.858-5.597c0,0-6.142,50.927-11.472,64.927c-5.34,14,1.33,22.67,10.66,25.33c0,0,0.01,0,0.04,0.01
			c9.34,2.65,22.63,0.68,19.3,11.99c-2.041,6.91-10.43,10.36-18.52,15.62c-5.17,3.36-10.221,7.47-13.381,13.72
			C1978.946,517.17,2030.946,508.5,2044.946,491.83z"/>
		<path fill="#A77F73" d="M2047.61,386.5c0,0,16,7.333,14.666,21.333c-1.333,14-13.254,26.237-7.293,29.785
			c5.96,3.548,12.627-4.452,19.293-3.119c6.667,1.333,13.334,4,13.334,4s18-10.667,15.333-38.667s-23.333-42.667-58.667-47.333
			c-35.333-4.667-48.666,15.333-50,27.333"/>
		<path fill="#FF5000" d="M1993.824,509.641c0,0,59.188-47.14,79.452-19.141C2073.276,490.5,2017.706,516.78,1993.824,509.641z"/>
		<path fill="#FF5000" d="M1998.181,488.265l-4.356,21.376c0,0-8.548,3.111-11.881-8.681
			C1978.61,489.167,1994.085,484.362,1998.181,488.265z"/>
		<path fill="none" stroke="#231C69" stroke-width="2" stroke-linecap="round" stroke-miterlimit="10" d="M1993.824,509.641"/>
		<path fill="none" stroke="#231C69" stroke-width="2" stroke-linecap="round" stroke-miterlimit="10" d="M2000.418,423.5
			c0,0-7.358,8,0,10"/>
		<path fill="none" stroke="#231C69" stroke-width="2" stroke-linecap="round" stroke-miterlimit="10" d="M2014.888,446.5
			c0,0-10.6,3.027-16.105-4.486"/>
		<path fill="#A07A7A" d="M2000.427,487.45c40.3-5,53.39-35.46,41.77-29.53c-12.32,6.28-41.38,2.09-42.55,1.92
			c9.34,2.65,22.63,0.68,19.3,11.99C2016.905,478.74,2008.517,482.19,2000.427,487.45z"/>
		<circle fill="#231C69" cx="2028.845" cy="423.568" r="2.068"/>
		<circle fill="#231C69" cx="2000.845" cy="413.568" r="2.068"/>
		<g>
			<path fill="#FFCE00" d="M2114.661,399.355c-6.316,13.202-51.968-15.943-72.758-28.665
				c-20.787-12.722-38.043-21.247-38.043-21.247c27.717-40.667,71.86-25.219,85.217-19.274
				C2089.077,330.17,2133.224,360.558,2114.661,399.355z"/>
			<path fill="#D6AE05" d="M2054.899,376.364c0,0-60.541-9.908-77.535-25.973c-6.354-6.005,30.008-5.307,30.008-5.307
				S2045.669,368.591,2054.899,376.364z"/>
			<path fill="none" stroke="#231C69" stroke-width="2" stroke-linecap="round" stroke-miterlimit="10" d="M2117.066,366.487
				c0,0-55.771-17.959-73.781-35.199l-6.087,16.702c0,0,42.398,31.072,82.01,31.599"/>
			<g>
				<path fill="#FF5000" d="M2012.624,322.31c-4.391,7.172-2.133,16.543,5.037,20.935c7.172,4.388,28.654,9.546,33.043,2.375
					c4.391-7.171-9.975-23.956-17.148-28.346C2026.386,312.885,2017.013,315.14,2012.624,322.31z"/>
				<circle fill="#231C69" cx="2025.609" cy="330.258" r="15.224"/>
				<circle fill="#EEEEEE" cx="2025.607" cy="330.258" r="7.977"/>
			</g>
		</g>
		<path fill="none" stroke="#231C69" stroke-width="2" stroke-linecap="round" stroke-miterlimit="10" d="M1940.328,718.048
			l44.915-16.614c0,0,15.795-54.709,20.671-77.27c4.874-22.561,18.453-102.174,40.349-116.767"/>
		<path fill="none" stroke="#231C69" stroke-width="2" stroke-linecap="round" stroke-miterlimit="10" d="M2035.249,826.047
			c0,0,23.72,185.21,54.248,262.613s87.525,228.896,87.525,228.896"/>
		<g>
			<path fill="#231C69" d="M2035.249,1039l58.871-18c0,0,22,63,20,77s-44.609,30-57.176,10
				C2045.065,1089.095,2035.249,1039,2035.249,1039z"/>
			<path fill="none" stroke="#FCFCFC" stroke-width="3" stroke-linecap="round" stroke-miterlimit="10" d="M2036.001,1042.657
				c0,0,23.162,18.343,40.141,12.343s17.979-34,17.979-34"/>
		</g>
		<g>
			<path fill="#FCFCFC" d="M2041.542,590.637c-2.777-5.07-4.357-10.889-4.357-17.077c0-19.659,15.936-35.595,35.595-35.595
				s35.595,15.936,35.595,35.595c0,19.658-15.936,35.594-35.595,35.594c-8.814,0-16.88-3.205-23.097-8.513"/>
			<path fill="#468AF5" d="M2059.182,576.975c0,7.047,5.714,12.761,12.761,12.761c7.049,0,12.762-5.713,12.762-12.761
				c0-7.048-10.606-23.807-12.762-23.807C2069.26,553.167,2059.182,569.926,2059.182,576.975z"/>
			
				<ellipse transform="matrix(-0.9871 0.1602 -0.1602 -0.9871 4221.8477 807.9452)" fill="#7AB4F9" cx="2078.356" cy="574.151" rx="2.902" ry="5.907"/>
		</g>
		<path fill="none" stroke="#FCFCFC" stroke-width="3" stroke-linecap="round" stroke-linejoin="round" stroke-miterlimit="10" d="
			M2030.304,612.476c0,0,41.372,22.13,67.441,6.99l-1.555,25.79c0,0-40.83,7.453-69.716-15.087L2030.304,612.476z"/>
		<path fill="none" stroke="#FCFCFC" stroke-width="3" stroke-linecap="round" stroke-linejoin="round" stroke-miterlimit="10" d="
			M1993.824,509.641c0,0-18.978,60.271-20.341,119.815"/>
		<g>
			
				<line fill="none" stroke="#231C69" stroke-width="2" stroke-linecap="round" stroke-miterlimit="10" x1="1867.12" y1="1380" x2="1873.12" y2="1394.236"/>
			
				<line fill="none" stroke="#231C69" stroke-width="2" stroke-linecap="round" stroke-miterlimit="10" x1="1862.432" y1="1386.375" x2="1877.809" y2="1387.861"/>
		</g>
		<g>
			
				<line fill="none" stroke="#231C69" stroke-width="2" stroke-linecap="round" stroke-miterlimit="10" x1="1878.12" y1="1370" x2="1884.12" y2="1384.236"/>
			
				<line fill="none" stroke="#231C69" stroke-width="2" stroke-linecap="round" stroke-miterlimit="10" x1="1873.432" y1="1376.375" x2="1888.809" y2="1377.861"/>
		</g>
		<g>
			
				<line fill="none" stroke="#231C69" stroke-width="2" stroke-linecap="round" stroke-miterlimit="10" x1="2157.593" y1="1370.624" x2="2171.03" y2="1378.246"/>
			
				<line fill="none" stroke="#231C69" stroke-width="2" stroke-linecap="round" stroke-miterlimit="10" x1="2157.766" y1="1378.536" x2="2170.857" y2="1370.334"/>
		</g>
		<g>
			
				<line fill="none" stroke="#231C69" stroke-width="2" stroke-linecap="round" stroke-miterlimit="10" x1="2160.21" y1="1355.99" x2="2173.647" y2="1363.612"/>
			
				<line fill="none" stroke="#231C69" stroke-width="2" stroke-linecap="round" stroke-miterlimit="10" x1="2160.383" y1="1363.902" x2="2173.475" y2="1355.7"/>
		</g>
		<path fill="#FF5000" d="M1745.581,908.068c-1.836,5.486-7.772,8.446-13.26,6.61l-32.287-10.804
			c-5.487-1.836-8.447-7.772-6.611-13.26l2.236-6.684c1.837-5.486,7.772-8.445,13.26-6.61l32.287,10.804
			c5.487,1.837,8.447,7.773,6.611,13.26L1745.581,908.068z"/>
		<path fill="#FF5000" d="M1712.198,562.787c-5.461-1.915-8.334-7.892-6.422-13.354l11.262-32.129
			c1.916-5.46,7.893-8.335,13.355-6.422l6.65,2.332c5.459,1.915,8.332,7.892,6.421,13.353l-11.263,32.13
			c-1.915,5.46-7.894,8.334-13.353,6.421L1712.198,562.787z"/>
	</g>
	<g>
		<path fill="#FCFCFC" d="M236.31,1557c7.582-5.943,11.811-15.816,11.811-31.679V424.114C248.12,363.229,185.94,314,110.144,314
			H-0.88v1243H236.31z"/>
		<linearGradient id="SVGID_3_" gradientUnits="userSpaceOnUse" x1="-14.7959" y1="1060.8271" x2="-306.7959" y2="1336.8275">
			<stop  offset="0" style="stop-color:#FFFFFF;stop-opacity:0"/>
			<stop  offset="1" style="stop-color:#000000"/>
		</linearGradient>
		<path opacity="0.2" fill="url(#SVGID_3_)" d="M236.31,1557c7.582-5.943,11.811-15.816,11.811-31.679V424.114
			C248.12,363.229,185.94,314,110.144,314H-0.88v1243H236.31z"/>
		<g>
			<path fill="#CCCCCC" d="M1340.42,1377.002c-0.155,0-0.294-0.001-0.416-0.002H732.598c-29.3,0-53.732-9.67-72.618-28.741
				c-36.172-36.528-36.912-93.307-36.859-100.364v-95.729c0-14.822-3.771-25.523-11.526-32.715
				c-12.895-11.954-35.562-13.105-43.338-12.542l-1.187,0.119L566.12,1107h-146v-50h145.072c8.906-0.591,50.377-1.705,80.02,25.438
				c12.731,11.658,27.908,33.22,27.908,69.728l-0.001,96.079c-0.029,11.695,3.957,46.354,22.514,64.958
				c9.261,9.284,21.353,13.797,36.965,13.797h607.729c1.161-0.015,17.223-0.357,32.225-7.892
				c18.127-9.104,26.569-24.38,26.569-48.075V915.832c-0.453-7.662-1.243-42.096,18.904-64.988
				c10.696-12.153,25.34-19.006,42.347-19.815l1.189-0.028h59.56v50h-58.852c-4.073,0.285-5.58,1.606-6.672,2.833
				c-5.404,6.073-7.101,20.992-6.552,29.227l0.099,1.077L1449.12,915v356.033c0,30.759-9.623,55.863-28.602,74.616
				C1390.126,1375.681,1347.617,1377.001,1340.42,1377.002z"/>
		</g>
		<g>
			<path fill="#B7B7B7" d="M622.212,1082.438c12.731,11.658,27.908,33.22,27.908,69.728l-0.001,96.079
				c-0.029,11.695,3.957,46.354,22.514,64.958c9.261,9.284,21.353,13.797,36.965,13.797h23c-15.612,0-27.704-4.513-36.964-13.797
				c-18.557-18.604-22.514-53.263-22.514-64.958v-96.079c0-36.508-15.177-58.069-27.908-69.728
				c-29.643-27.144-71.113-26.029-80.02-25.438h-9.094C573.114,1057.952,600.757,1062.793,622.212,1082.438z"/>
			<path fill="#B7B7B7" d="M554.198,1107c-3.727-0.267-6.867-0.241-8.942-0.091l-0.904,0.091H554.198z"/>
			<rect x="1498.12" y="831" fill="#B7B7B7" width="23" height="50"/>
			<path fill="#B7B7B7" d="M1432.597,883.833c-5.404,6.073-7.101,20.992-6.552,29.227l0.099,1.077L1426.12,915v356.033
				c0,30.759-9.623,55.863-28.602,74.616c-30.008,29.651-71.803,31.312-79.784,31.351h22.27c0.122,0.001,0.261,0.002,0.416,0.002
				c7.197-0.001,49.706-1.321,80.099-31.353c18.979-18.753,28.602-43.857,28.602-74.616V915l0.023-0.863l-0.099-1.077
				c-0.549-8.234,1.147-23.153,6.552-29.227c1.092-1.227,2.599-2.548,6.672-2.833h-23
				C1435.195,881.285,1433.688,882.606,1432.597,883.833z"/>
		</g>
		<g>
			<path fill="#CCCCCC" d="M396.12,1113h-71.505c-31.682,0-56.589-9.566-74.029-28.435c-24.095-26.065-23.861-59.707-23.466-67.322
				V865.711c0-35.182-11.092-59.743-32.969-73.002c-16.656-10.095-34.323-10.677-35.827-10.708l-0.26,0.008L158.12,782h-158v-50h158
				c4.49,0,49.052,0.863,82.642,34.045c24.126,23.832,36.358,57.364,36.358,99.666v153.531l-0.065,0.607
				c-0.064,1.75-0.428,19.474,10.47,31.015c7.604,8.053,20.084,12.136,37.091,12.136h71.505V1113z"/>
		</g>
		<g>
			<path fill="#E2E2E2" d="M432.823,1160.996L348.871,1159c-26.026-0.044-39.052-11.323-45.397-20.789
				c-6.519-9.722-7.259-19.502-7.342-21.671c-0.249-4.834-8.012-157.235-8.012-264.962c0-41.962-12.277-74.357-36.49-96.286
				c-44.013-39.862-114.05-33.425-114.754-33.354l-0.616,0.061L135.623,722H0.12v-25h134.919
				c8.474-0.751,82.827-5.882,133.234,39.636c29.758,26.872,44.847,65.545,44.847,114.942c0,108.271,7.903,262.233,7.983,263.775
				l0.019,0.354c0.066,0.775,0.573,5.192,3.612,9.285c4.439,5.978,12.611,9.008,24.29,9.008l0.297,0.004l84.096,2L432.823,1160.996z
				"/>
		</g>
		<g>
			<path fill="#B7B7B7" d="M0.18,1355.12v0.03c-0.21,0.02-0.409,0.029-0.579,0.029C-0.02,1355.17,0.18,1355.12,0.18,1355.12z"/>
			<path fill="#B7B7B7" d="M421.98,1278.75c-29.07,32.68-73.101,49.25-130.86,49.25H167.18l-0.79-0.07
				c-3.97-0.1-15.18,0.391-24.59,3.82c-8.819,3.21-9.02,5.48-9.37,9.59c-4.09,47.66-30.029,84.38-73.04,103.61
				C31.38,1457.46,5.271,1458,0.13,1458H0.061l0.04-30.8l0.079-72.05c3.471-0.221,11.771-1.37,18.71-4.881
				c6.37-3.22,9.99-6.989,10.921-17.76c4.069-47.42,33.729-83.55,81.38-99.149c26.54-8.69,51.12-8.65,59.04-8.36h120.89
				c25.78,0,44.75-5.04,53.41-14.18c6.359-6.7,6.83-15.86,6.82-18.49l-0.681-3.8l0.45-1.53v-146c0-9.96-0.98-18.73-2.96-26.26
				c-2.55-9.78-6.74-17.48-12.56-23.03c-13.711-13.06-36.721-15.12-44.95-14.82l-2.271,0.221l-1.26-0.11h-287V874h285.62
				c14.11-0.64,73.89-0.56,119.6,41.91c22.25,20.68,48.78,59.16,48.78,125.09v144.17C454.95,1199.22,454.42,1242.27,421.98,1278.75z
				"/>
		</g>
		<path fill="#A3A3A3" d="M421.98,1278.75c-29.07,32.68-73.101,49.25-130.86,49.25H167.18l-0.79-0.07
			c-3.97-0.1-15.18,0.391-24.59,3.82c-8.819,3.21-9.02,5.48-9.37,9.59c-4.09,47.66-30.029,84.38-73.04,103.61
			C31.38,1457.46,5.271,1458,0.13,1458H0.061l0.04-30.8c25.399-3.41,91.079-19.36,99.52-93.03c0,0,4.5-33.11,88.5-31.61
			c0,0,146.99,15.881,193.49-22.06s70.51-57.5,71.51-148.5c0.07-6.33,0.42-11.43,1-15.44v68.61
			C454.95,1199.22,454.42,1242.27,421.98,1278.75z"/>
		<path fill="#A3A3A3" d="M348.16,1014.74c-2.55-9.78-6.74-17.48-12.56-23.03c-13.711-13.06-36.721-15.12-44.95-14.82l-2.271,0.221
			l-1.26-0.11h-287v-36h277C277.12,941,348.16,927.9,348.16,1014.74z"/>
		<path fill="#969696" d="M465.12,1120c0,6.627-5.373,12-12,12h-8c-6.627,0-12-5.373-12-12v-79c0-6.627,5.373-12,12-12h8
			c6.627,0,12,5.373,12,12V1120z"/>
		<path fill="#CCCCCC" d="M579.12,1059.279c0,9.234-7.486,16.721-16.722,16.721h-51.557c-9.235,0-16.722-7.486-16.722-16.721
			v-12.559c0-9.234,7.486-16.721,16.722-16.721h51.557c9.235,0,16.722,7.486,16.722,16.721V1059.279z"/>
		<path fill="#CCCCCC" d="M543.12,1034c0,4.418-3.582,8-8,8l0,0c-4.418,0-8-3.582-8-8v-50c0-4.418,3.582-8,8-8l0,0
			c4.418,0,8,3.582,8,8V1034z"/>
		<g>
			<path fill="#CCCCCC" d="M535.454,1005c-28.822,0-58-9.16-58-26.667s29.178-26.667,58-26.667s58,9.16,58,26.667
				S564.276,1005,535.454,1005z M535.454,965.666c-12.597,0-24.823,1.929-33.544,5.291c-7.9,3.047-10.456,6.285-10.456,7.376
				s2.556,4.329,10.456,7.376c8.721,3.362,20.947,5.291,33.544,5.291s24.823-1.929,33.544-5.291
				c7.9-3.047,10.456-6.285,10.456-7.376s-2.556-4.329-10.456-7.376C560.277,967.595,548.051,965.666,535.454,965.666z"/>
		</g>
		<path fill="#969696" d="M679.12,1170c0,6.627-5.373,12-12,12h-39c-6.627,0-12-5.373-12-12v-8c0-6.627,5.373-12,12-12h39
			c6.627,0,12,5.373,12,12V1170z"/>
		<path fill="#969696" d="M1455.12,936c0,6.627-5.373,12-12,12h-39c-6.627,0-12-5.373-12-12v-8c0-6.627,5.373-12,12-12h39
			c6.627,0,12,5.373,12,12V936z"/>
		<path fill="#969696" d="M280.12,1327c0,6.627-5.373,12-12,12h-8c-6.627,0-12-5.373-12-12v-99c0-6.627,5.373-12,12-12h8
			c6.627,0,12,5.373,12,12V1327z"/>
		<path fill="#969696" d="M280.12,974c0,6.627-5.373,12-12,12h-8c-6.627,0-12-5.373-12-12v-99c0-6.627,5.373-12,12-12h8
			c6.627,0,12,5.373,12,12V974z"/>
		<path fill="#FF5000" d="M1526.12,875c0,6.627-5.373,12-12,12h-8c-6.627,0-12-5.373-12-12v-39c0-6.627,5.373-12,12-12h8
			c6.627,0,12,5.373,12,12V875z"/>
		<g>
			<path fill="#4981FC" d="M1539.12,846.935c0,0,44-20.001,64-13.968s-1,11.902-11,13.968s57.484,4.679,84.242,27.872
				s-33.727,3.807-55.484,0c0,0,77.242,39.193,75.242,73.193s-85-54.055-117-58.027c0,0,9,18.473-2,25.25s-15-38.801-33-49.512
				S1539.12,846.935,1539.12,846.935z"/>
			<path fill="#7AB4F9" d="M1644.456,899.475c0,0,41.906,26.92,42.665,41.567S1644.456,899.475,1644.456,899.475z"/>
			<path fill="#7AB4F9" d="M1565.122,848.743c0,0,42.666,2.259,42.666,12.259S1565.122,848.743,1565.122,848.743z"/>
			<path fill="#7AB4F9" d="M1555.122,824c0,0,22-14.386,31.334-6.025C1595.788,826.335,1555.122,824,1555.122,824z"/>
			<path fill="#7AB4F9" d="M1603.122,932c0,0,3.021,23.268,9.334,20.335C1621.788,948,1603.122,932,1603.122,932z"/>
		</g>
		<g>
			
				<circle fill="none" stroke="#231C69" stroke-width="2" stroke-linecap="round" stroke-miterlimit="10" cx="396.024" cy="1088.37" r="11.639"/>
			
				<line fill="none" stroke="#231C69" stroke-width="2" stroke-linecap="round" stroke-miterlimit="10" x1="389.268" y1="1078.896" x2="402.119" y2="1098.285"/>
		</g>
		<g>
			<path fill="none" stroke="#231C69" stroke-width="3" stroke-linecap="round" stroke-miterlimit="10" d="M54.253,563.65
				c-5.383-9.825-8.443-21.1-8.443-33.09c0-38.094,30.877-68.971,68.97-68.971s68.971,30.877,68.971,68.971
				c0,38.089-30.878,68.968-68.971,68.968c-17.079,0-32.708-6.21-44.753-16.494"/>
			<path fill="#468AF5" d="M88.432,537.178c0,13.654,11.071,24.726,24.726,24.726c13.658,0,24.729-11.071,24.729-24.726
				c0-13.658-20.552-46.13-24.729-46.13C107.96,491.048,88.432,523.52,88.432,537.178z"/>
			<path fill="#7AB4F9" d="M120.036,532.607c1.012,6.238,4.318,10.894,7.382,10.398c3.067-0.498,4.73-5.959,3.718-12.199
				c-1.012-6.241-4.316-10.896-7.381-10.398C120.687,520.906,119.024,526.367,120.036,532.607z"/>
		</g>
		<g>
			<path fill="#028E30" d="M289.12,913c0,0,10,11,18,0s7-12,17-14s25-9.846,12-13.423s-26.059-15.435-36.029-5.506
				S289.12,913,289.12,913z"/>
			<path fill="#00AF41" d="M277.327,917.09c0,0-14.028-31.654,3.709-57.371c17.738-25.717,28.559-20.432,31.111-33.604
				c2.552-13.172,11.039-31.114,15.386-22.983c4.347,8.13-16.993,39.541-12.47,52.026c4.524,12.486,4.526,22.001-6.948,25.937
				s-16.166,13.992-14.171,24.855C295.938,916.814,286.022,922.201,277.327,917.09z"/>
			<path fill="#00AF41" d="M277.327,917.09c0,0,5.793-22.658,2.793-37.019s8.684-24.92,0.862-39.071s-7.046-18.404-0.454-32.202
				s-10.789-12.202-12.599,0S273.12,834,264.12,840s-15.338,10.412-10.169,24.706S249.067,890,252.094,899
				S260.538,924.062,277.327,917.09z"/>
			<path fill="none" stroke="#FFFFFF" stroke-width="3" stroke-linecap="round" stroke-miterlimit="10" d="M306.12,846
				c0,0-17,16.391-17,30.195s-9.783,24.582-5.392,41.693"/>
			<path fill="none" stroke="#FFFFFF" stroke-width="3" stroke-linecap="round" stroke-miterlimit="10" d="M272.062,838.333
				c0,0-5.94,11.837-4.44,20.585s1.167,14.638,0,23.026S262.112,908.91,269.72,913"/>
		</g>
		<g>
			<path fill="#028E30" d="M279.12,1326.755c0,0,8-37.048,42-46.901C321.12,1279.854,326.12,1320.51,279.12,1326.755z"/>
			<path fill="#00AF41" d="M276.837,1330.964c0,0-13.551-46.444,18.616-78.181C295.453,1252.783,325.79,1295.373,276.837,1330.964z"
				/>
			<path fill="none" stroke="#FFFFFF" stroke-width="3" stroke-linecap="round" stroke-miterlimit="10" d="M295.453,1252.783
				c0,0-6.333,54.883-16.333,72.216"/>
			<path fill="none" stroke="#FFFFFF" stroke-width="3" stroke-linecap="round" stroke-miterlimit="10" d="M321.12,1279.854
				c0,0-13.187,22.481-23.26,28.813"/>
		</g>
		<g>
			<path fill="#028E30" d="M227.159,1234.755c0,0-8-37.048-42-46.901C185.159,1187.854,180.159,1228.51,227.159,1234.755z"/>
			<path fill="#00AF41" d="M229.442,1238.964c0,0,13.551-46.444-18.616-78.181C210.826,1160.783,180.489,1203.373,229.442,1238.964z
				"/>
			<path fill="#00AF41" d="M229.442,1238.964c0,0,49.414-40.605,30.982-88.785C260.425,1150.179,195.388,1178.847,229.442,1238.964z
				"/>
			<path fill="none" stroke="#FFFFFF" stroke-width="3" stroke-linecap="round" stroke-miterlimit="10" d="M210.826,1160.783
				c0,0-0.125,25.297,8.751,39.09"/>
			<path fill="none" stroke="#FFFFFF" stroke-width="3" stroke-linecap="round" stroke-miterlimit="10" d="M185.159,1187.854
				c0,0,11.142,18.48,22.885,28.146"/>
			<path fill="none" stroke="#FFFFFF" stroke-width="3" stroke-linecap="round" stroke-miterlimit="10" d="M260.425,1150.179
				c0,0-31.365,44.33-30.002,84.576"/>
		</g>
		<g>
			<path fill="#028E30" d="M669.179,1148.529c0,0,6.527-30.228,34.268-38.268C703.446,1110.262,707.526,1143.435,669.179,1148.529z"
				/>
			<path fill="#00AF41" d="M667.315,1151.964c0,0-11.057-37.895,15.189-63.789C682.505,1088.175,707.257,1122.925,667.315,1151.964z
				"/>
			<path fill="none" stroke="#FFFFFF" stroke-width="3" stroke-linecap="round" stroke-miterlimit="10" d="M682.505,1088.175
				c0,0-5.168,44.78-13.326,58.922"/>
			<path fill="none" stroke="#FFFFFF" stroke-width="3" stroke-linecap="round" stroke-miterlimit="10" d="M703.446,1110.262
				c0,0-10.759,18.344-18.978,23.51"/>
		</g>
		<path fill="none" stroke="#231C69" stroke-width="2" stroke-linecap="round" stroke-miterlimit="10" d="M0.12,354h123
			c0,0,96.787,13.772,128.394,98.386"/>
	</g>
	<g>
		<g>
			<path fill="#D6AE05" d="M788.032,1414.755l-4.5-2.067l-6.51-2.994c-5.231-39.902,25.72-82.524,25.72-82.524l-5.928-5.358
				l11.71-29.495l21.139,7.173l64.682,22.021c12.509,4.242-24.457,56.102-24.457,56.102
				C824.493,1362.071,788.032,1414.755,788.032,1414.755z"/>
			<path fill="#FF5000" d="M783.532,1412.688l-6.51-2.994c-5.231-39.902,25.72-82.524,25.72-82.524l-5.928-5.358l11.71-29.495
				l21.139,7.173C817.438,1315.832,786.577,1361.787,783.532,1412.688z"/>
		</g>
		<path fill="#231C69" d="M887.12,1326c0,0-30,55.473-19,61.236s111,0.236,141,0s198,12.164,209-33.036s-98-181.2-127-198.2
			s-84,93-84,93l47,54C1054.12,1303,889.12,1304,887.12,1326z"/>
		<g>
			<path fill="#F5C8C1" d="M1107.491,1083.604c0,0,53.906,60.792,86.935,64.178s160.36-35.28,181.694-39.947s32-10,43.334-10
				c11.333,0,42-19.648,52.666-30.491s7.334-26.843,7.334-26.843s-10,7.79-17.334,10.229s-18.666,0-18.666,0s5.333-5.562,10-6.895
				c4.666-1.334,8.666-2.001,8.666-3.334s-13-3-18.333-1.666c-5.333,1.333-26.334,13.666-35.667,18.666s-23.334,8-27,8
				s-144.332-1.314-166.999,1.843c0,0-25.377-28.177-41.688-37.511C1156.121,1020.5,1107.491,1083.604,1107.491,1083.604z"/>
			<path fill="#231C69" d="M1041.12,933.104c-20.19,14.396-32.255,40.157-4.432,76.212s92.438,92.806,111.435,113.245
				s28.663,23.089,51.33,25.431s166.667-33.657,174-34.991s14-3.334,12-17.334s-6.667-37.334-18.667-38s-52.135,1.334-73.067,0.667
				s-68.957-0.719-76.266,2c0,0-58.002-56.661-70.668-72.664S1086.788,900.541,1041.12,933.104z"/>
		</g>
		<g>
			<path fill="#F5C8C1" d="M1057.907,918.062c-1.356-21.719,7.23-34.447,5.455-39.901c-1.777-5.454-23.189-17.972-8.063-28.343
				c15.125-10.37,15.522-49.048,48.362-43.005c32.846,6.033,66.406,13.098,62.723,39.398c0,0-25.331,44.605-29.367,59.032
				c-4.026,14.432-14.544,17.44-23.629,14.034c0,0-0.008-0.006-0.037-0.017c-9.086-3.421-18.603-12.903-22.647-1.829
				c-2.466,6.77,2.23,14.53,5.608,23.569c2.161,5.775,3.779,12.081,2.605,18.986C1095.921,977.67,1059.257,939.789,1057.907,918.062
				z"/>
			<path fill="#231C69" d="M1118.371,831.774c0,0-17.226-3.612-24.476,8.439c-7.249,12.05-4.936,28.977-11.838,28.287
				c-6.902-0.69-7.508-11.086-13.662-13.976s-13.101-4.709-13.101-4.709s-8.135-19.276,10.653-40.208
				c18.787-20.932,44.125-20.444,75.312-3.195c31.188,17.25,31.369,34.606,25.31,45.048"/>
			<path fill="#FFCE00" d="M1059.001,807.789c-4.395,13.961,48.863,23.817,72.74,28.708s42.307,10.438,42.307,10.438
				c7.498-48.639-35.308-67.478-49.128-72.249C1124.92,774.686,1071.915,766.765,1059.001,807.789z"/>
			<path fill="#D6AE05" d="M1118.371,831.774c0,0,51.011,34.079,74.396,33.937c8.743-0.051-18.311-24.359-18.311-24.359
				S1130.423,832.394,1118.371,831.774z"/>
			<path fill="none" stroke="#231C69" stroke-width="2" stroke-linecap="round" stroke-miterlimit="10" d="M1134.33,889.579
				c0,0,1.162,10.807-5.944,8.042"/>
			<path fill="none" stroke="#231C69" stroke-width="2" stroke-linecap="round" stroke-miterlimit="10" d="M1109.022,899.475
				c0,0,6.724,8.735,15.619,5.965"/>
			<path fill="#E0AAA4" d="M1096.312,941.002c-29.436-27.975-21.858-60.251-16.037-48.575c6.174,12.374,32.034,26.276,33.076,26.835
				c-9.086-3.421-18.603-12.903-22.647-1.829C1088.237,924.202,1092.934,931.963,1096.312,941.002z"/>
			<circle fill="#231C69" cx="1111.429" cy="872.738" r="2.069"/>
			<circle fill="#231C69" cx="1139.89" cy="881.339" r="2.068"/>
			<path fill="none" stroke="#231C69" stroke-width="2" stroke-linecap="round" stroke-miterlimit="10" d="M1079.677,782.125
				c0,0,53.019,24.938,77.947,24.632l-6.948,16.361c0,0-52.196-6.228-81.507-32.878"/>
			<g>
				<path fill="#FF5000" d="M1186.161,821.121c-1.686,8.239-9.731,13.548-17.969,11.863c-8.236-1.688-27.457-12.579-25.771-20.816
					c1.687-8.238,23.641-10.701,31.88-9.014C1182.536,804.84,1187.848,812.886,1186.161,821.121z"/>
				<circle fill="#231C69" cx="1171.247" cy="818.068" r="15.224"/>
				<circle fill="#EEEEEE" cx="1171.247" cy="818.069" r="7.976"/>
			</g>
		</g>
		<path fill="#D6AE05" d="M1196.992,1429.245l-1.142,4.818l-1.654,6.972c-38.092,12.983-85.973-8.973-85.973-8.973l-4.086,6.866
			l-31.224-5.675l2.872-22.138l8.859-67.75c1.697-13.1,59.818,12.936,59.818,12.936
			C1138.162,1403.867,1196.992,1429.245,1196.992,1429.245z"/>
		<path fill="#FF5000" d="M1195.851,1434.063l-1.654,6.972c-38.092,12.983-85.973-8.973-85.973-8.973l-4.086,6.866l-31.224-5.675
			l2.872-22.138C1094.216,1419.886,1145.347,1441.098,1195.851,1434.063z"/>
		<path fill="#F5C8C1" d="M1249.31,1161.784c0,0-7.684-10.082-14.154-14.31c-6.47-4.227-18.049-4.758-18.049-4.758
			s3.738,6.737,7.912,9.216c4.172,2.479,7.869,4.145,7.529,5.433c-0.34,1.289-13.335-0.412-18.152-3.062
			c-4.816-2.648-21.98-19.927-29.73-27.141s-20.523-13.684-24.068-14.618c-0.467-0.123-3.243-0.831-7.75-1.986l10.984-41.67
			c1.045,0.568,1.956,1.055,2.721,1.446c19.44,9.95,28.395,17.826,39.354,20.715c10.959,2.89,35.604,29.705,43.154,42.909
			C1256.61,1147.162,1249.31,1161.784,1249.31,1161.784z"/>
		<path fill="#4981FC" d="M816.593,1277.06c0,0,0.001-70.497,44.998-164.992s121.111-231.426,191.049-209.458
			s58.708,72.892,65.731,95.391s-17.433,160.565-133.787,202.563C908.217,1228.128,816.593,1277.06,816.593,1277.06z"/>
		<path fill="#231C69" d="M968.12,949.465c0,0-37.158,135.965-10.579,204.75s76.677,18.354,111.628,7.569
			s78.954-39.224,78.954-39.224l-89.378-18.622c0,0-9.289-25.229-16.449-60.12s13.626-86.097,13.626-86.097L968.12,949.465z"/>
		<path fill="#4981FC" d="M876.591,1334.059c38.103,3.242,97.495-14.999,137.993-43.498s98.516-79.496,98.516-79.496
			s-14.123,37.495-21.071,65.995s-31.443,79.872,8.553,79.685s59.495,11.812,78.994-51.185s32.999-152.992,32.999-152.992
			s-3.001-37.499-35.999-46.498s-166.273,77.753-166.273,77.753L816.04,1268C816.04,1268,806.095,1328.06,876.591,1334.059z"/>
		<path fill="#4981FC" d="M1007.12,919c21.662-4.332,49,19,53,58s5.496,101,5.496,101s81.504-18.256,110.504-6.628
			s13.305,29.089,6.652,36.858s-30.443,16.77-48.048,22.77s-126.765,52-158.685,34s-14.176-199.347-7.92-215.535
			S987.12,923,1007.12,919z"/>
		<path fill="#FF5000" d="M1104.938,941.042c0,0-43.213-62.112-70.646-41.088C1034.293,899.954,1080.014,941.045,1104.938,941.042z"
			/>
		<path fill="none" stroke="#231C69" stroke-width="2" stroke-linecap="round" stroke-miterlimit="10" d="M1047.679,1160.71
			c0,0,83.746-75.249,135.094-52.479"/>
		<path fill="none" stroke="#231C69" stroke-width="2" stroke-linecap="round" stroke-miterlimit="10" d="M1010.302,1183.822
			c0,0-41.5,26.85-62.341,27.014"/>
		<path fill="none" stroke="#231C69" stroke-width="2" stroke-linecap="round" stroke-miterlimit="10" d="M1109.022,1070.453
			l-43.406,7.547c0,0,1.295-80.969-6.871-113.446s-12.705-46.583-32.165-46.068"/>
		<path fill="none" stroke="#231C69" stroke-width="2" stroke-linecap="round" stroke-miterlimit="10" d="M890.089,1247.061
			c0,0,37.093,37.498,89.043,10.499s145.568-138.235,187.53-109.568l-48.291,205.544"/>
		<g>
			<path fill="#231C69" d="M1095.492,1196.232l-11.644-55.766c0,0,59.906-14.983,72.641-11.965
				c12.734,3.02,23.899,43.631,4.415,53.531C1142.483,1191.394,1095.492,1196.232,1095.492,1196.232z"/>
			<path fill="none" stroke="#FCFCFC" stroke-width="3" stroke-linecap="round" stroke-miterlimit="10" d="M1098.926,1195.846
				c0,0,18.851-19.804,14.747-35.954c-4.104-16.151-29.824-19.425-29.824-19.425"/>
		</g>
		<g>
			<path fill="#FCFCFC" d="M979.542,1015.637c-2.777-5.07-4.357-10.889-4.357-17.077c0-19.659,15.936-35.595,35.595-35.595
				s35.595,15.936,35.595,35.595c0,19.657-15.936,35.594-35.595,35.594c-8.814,0-16.88-3.205-23.097-8.513"/>
			<path fill="#468AF5" d="M997.182,1001.975c0,7.047,5.714,12.761,12.761,12.761c7.049,0,12.762-5.714,12.762-12.761
				c0-7.049-10.606-23.807-12.762-23.807C1007.26,978.168,997.182,994.926,997.182,1001.975z"/>
			
				<ellipse transform="matrix(-0.9871 0.1602 -0.1602 -0.9871 2179.646 1822.5837)" fill="#7AB4F9" cx="1016.356" cy="999.151" rx="2.902" ry="5.907"/>
		</g>
		<path fill="none" stroke="#FCFCFC" stroke-width="3" stroke-linecap="round" stroke-linejoin="round" stroke-miterlimit="10" d="
			M974.62,1043.818c0,0,45.117,12.879,67.394-7.433l3.937,25.535c0,0-38.33,15.921-71.33,0V1043.818z"/>
		<g>
			
				<line fill="none" stroke="#231C69" stroke-width="2" stroke-linecap="round" stroke-miterlimit="10" x1="1156.776" y1="1408.989" x2="1171.95" y2="1406.091"/>
			
				<line fill="none" stroke="#231C69" stroke-width="2" stroke-linecap="round" stroke-miterlimit="10" x1="1162.033" y1="1414.904" x2="1166.692" y2="1400.176"/>
		</g>
		<g>
			
				<line fill="none" stroke="#231C69" stroke-width="2" stroke-linecap="round" stroke-miterlimit="10" x1="1149.29" y1="1396.146" x2="1164.464" y2="1393.247"/>
			
				<line fill="none" stroke="#231C69" stroke-width="2" stroke-linecap="round" stroke-miterlimit="10" x1="1154.547" y1="1402.062" x2="1159.206" y2="1387.332"/>
		</g>
		<g>
			
				<line fill="none" stroke="#231C69" stroke-width="2" stroke-linecap="round" stroke-miterlimit="10" x1="824.304" y1="1371.05" x2="822.418" y2="1386.382"/>
			
				<line fill="none" stroke="#231C69" stroke-width="2" stroke-linecap="round" stroke-miterlimit="10" x1="817.063" y1="1374.243" x2="829.658" y2="1383.188"/>
		</g>
		<g>
			
				<line fill="none" stroke="#231C69" stroke-width="2" stroke-linecap="round" stroke-miterlimit="10" x1="838.821" y1="1367.854" x2="836.937" y2="1383.187"/>
			
				<line fill="none" stroke="#231C69" stroke-width="2" stroke-linecap="round" stroke-miterlimit="10" x1="831.581" y1="1371.048" x2="844.177" y2="1379.992"/>
		</g>
	</g>
	<g>
		<g>
			<path fill="#E1BCAF" d="M801.592,1016.069c1.935,0,1.935-3,0-3S799.657,1016.069,801.592,1016.069L801.592,1016.069z"/>
		</g>
	</g>
	<g>
		<path fill="none" stroke="#FFFFFF" stroke-width="4" stroke-miterlimit="10" d="M1408.481,240.782
			c6.799,29.31,51.749,45.433,102.754,36.218s37.049,5.277,107.033,10.032s85.379-52.25,124.188-46.25
			c38.807,6,141.513,16.442,138.164-21.782c-3.35-38.224-134.906-8.221-153.136-35.224s-97.487-63.006-116.364-39.004
			s-91.111,6-113.5,36.003S1398.737,198.778,1408.481,240.782z"/>
		<path fill="none" stroke="#FFFFFF" stroke-width="4" stroke-miterlimit="10" d="M842.644,417.518
			c4.689,27.399,91.441,13.822,137.585,12.113c46.143-1.709,63.542,30.909,102.054,20.812
			c38.511-10.097,54.066-84.966-12.104-73.622c-66.17,11.344-87.333,35.366-109.054,20.87
			C939.405,383.196,835.334,374.812,842.644,417.518z"/>
		<path fill="#FFCE00" d="M534.12,289c-21.967,7.789-128.025,11.429-114-9.893s93.963-5.89,114-27.107s14.036-23.783,50.04-18
			c9.204,1.479,18.339-1.628,27.758-6.754c0.001-0.229,0.009-0.456,0.009-0.684c0-70.363-57.039-127.404-127.402-127.404
			c-70.365,0-127.404,57.041-127.404,127.404c0,70.363,57.039,127.403,127.404,127.403c46.059,0,86.404-24.442,108.784-61.062
			C570.078,284.89,547.929,284.104,534.12,289z"/>
		<path fill="none" stroke="#FFFFFF" stroke-width="4" stroke-miterlimit="10" d="M710.173,194
			c45.553,15.31,48.998,19.215,81.505,40s92.512-11.791,86.512,36s-31.037,18.21-93.526,24s-115.585,48.212-150.543,21
			s-78.033-33.789-100-26s-128.025,11.429-114-9.893s93.963-5.89,114-27.107s14.036-23.783,50.04-18S655.104,175.492,710.173,194z"
			/>
	</g>
</g>
</svg>
