<svg
    xmlns="http://www.w3.org/2000/svg"
    width="83.519"
    height="83.519"
    viewBox="0 0 83.519 83.519"
>
    <g fill="none">
        <path
            d="M41.76,0A41.76,41.76,0,1,1,0,41.76,41.76,41.76,0,0,1,41.76,0Z"
            stroke="none"
        />
        <path
            d="M 41.75970458984375 2.000007629394531 C 36.39129257202148 2.000007629394531 31.18452835083008 3.05096435546875 26.28404235839844 5.123695373535156 C 21.54972839355469 7.126144409179688 17.29745483398438 9.993240356445313 13.64535522460938 13.64535522460938 C 9.993240356445313 17.29745483398438 7.126144409179688 21.54972839355469 5.123695373535156 26.28404235839844 C 3.05096435546875 31.18452835083008 2.000007629394531 36.39129257202148 2.000007629394531 41.75970458984375 C 2.000007629394531 47.12811660766602 3.05096435546875 52.33487701416016 5.123695373535156 57.23536682128906 C 7.126144409179688 61.96968078613281 9.993240356445313 66.22195434570313 13.64535522460938 69.87405395507813 C 17.29745483398438 73.52616882324219 21.54972839355469 76.39326477050781 26.28404235839844 78.39571380615234 C 31.18452835083008 80.46844482421875 36.39129257202148 81.51940155029297 41.75970458984375 81.51940155029297 C 46.25212860107422 81.51940155029297 50.6617546081543 80.779541015625 54.86608123779297 79.32035827636719 C 58.90678024291992 77.91796875 62.63804244995117 75.89639282226563 65.95648193359375 73.31159210205078 C 75.84693908691406 65.61029052734375 81.51940155029297 54.11007690429688 81.51940155029297 41.75970458984375 C 81.51940155029297 36.39129257202148 80.46844482421875 31.18452835083008 78.39571380615234 26.28404235839844 C 76.39326477050781 21.54972839355469 73.52616882324219 17.29745483398438 69.87405395507813 13.64535522460938 C 66.22195434570313 9.993240356445313 61.96968078613281 7.126144409179688 57.23536682128906 5.123695373535156 C 52.33487701416016 3.05096435546875 47.12811660766602 2.000007629394531 41.75970458984375 2.000007629394531 M 41.75970458984375 7.62939453125e-06 C 64.82295227050781 7.62939453125e-06 83.51940155029297 18.69645690917969 83.51940155029297 41.75970458984375 C 83.51940155029297 55.15944290161133 77.20821380615234 67.08512878417969 67.18522644042969 74.88961791992188 C 60.320068359375 80.23704528808594 51.4232063293457 83.51940155029297 41.75970458984375 83.51940155029297 C 18.69645690917969 83.51940155029297 7.62939453125e-06 64.82295227050781 7.62939453125e-06 41.75970458984375 C 7.62939453125e-06 18.69645690917969 18.69645690917969 7.62939453125e-06 41.75970458984375 7.62939453125e-06 Z"
            stroke="none"
            fill="#fff"
            class="svg-circle-border"
        />
    </g>
    <path
        d="M20.405,2.2a3.02,3.02,0,0,0-5.811,0C9.944,17.882,0,22.145,0,33.2A17.6,17.6,0,0,0,17.5,50.909,17.6,17.6,0,0,0,35,33.2c0-11.112-9.922-15.247-14.595-31ZM17.5,44.545A11.15,11.15,0,0,1,6.364,33.409a1.591,1.591,0,0,1,3.182,0A7.964,7.964,0,0,0,17.5,41.363a1.591,1.591,0,1,1,0,3.182Z"
        transform="translate(24.26 16.305)"
        fill="#66d6d9"
    />
</svg>
